<svg width="512" height="512" viewBox="0 0 512 512" fill="none" xmlns="http://www.w3.org/2000/svg">
<rect width="512" height="512" fill="white"/>
<path d="M444.341 370.75C456.451 370.75 468.064 365.935 476.627 357.365C485.19 348.794 490 337.17 490 325.05V73.7C490 61.5796 485.19 49.9556 476.627 41.3852C468.064 32.8148 456.451 28 444.341 28H203.721C211.711 41.9385 216.049 57.705 216.049 73.7H444.341V325.05H238.878V370.75M330.195 142.25V187.95H193.22V485H147.561V347.9H101.902V485H56.2439V302.2H22V187.95C22 175.83 26.8104 164.206 35.3731 155.635C43.9357 147.065 55.5491 142.25 67.6585 142.25H330.195ZM170.39 73.7C170.39 85.8204 165.58 97.4444 157.017 106.015C148.455 114.585 136.841 119.4 124.732 119.4C112.622 119.4 101.009 114.585 92.4462 106.015C83.8836 97.4444 79.0732 85.8204 79.0732 73.7C79.0732 61.5796 83.8836 49.9556 92.4462 41.3852C101.009 32.8148 112.622 28 124.732 28C136.841 28 148.455 32.8148 157.017 41.3852C165.58 49.9556 170.39 61.5796 170.39 73.7Z" fill="black"/>
</svg>
